# xmcd
#
# Track frame offsets: 
#        150
#        14966
#        34571
#        55375
#        76132
#        95797
#        116117
#        134057
#        153058
#        168873
#        186056
#        202156
#        226550
#        250671
#        272263
#        289838
#        307547
#        321269
#        327123
#        342570
#
# Disc length: 4786 seconds
#
# Revision: 0
# Processed by: cddbd v1.5.2PL0 Copyright (c) Steve Scherf et al.
# Submitted via: ExactAudioCopy v0.95a5
#
DISCID=1312b014
DTITLE=Various Artist - It's Country Blues  part1 CD1
DYEAR=2007
DGENRE=Blues
TTITLE0=Natural Born Eas'Man - GUY DAVIS
TTITLE1=Buck These Haggard Blues - BIG HOUSE
TTITLE2=Prodigal Son - MICHAEL POWERS
TTITLE3=Idle Days Drive - DANNY JOHNSON
TTITLE4=Wait Til Your Daddy Gets Home - VINCE GILL
TTITLE5=Johnny Hart - JOHN MELLENCAMP
TTITLE6=Easy Does It - RICK VITO
TTITLE7=Higher Ground - DELTA MOON
TTITLE8=Shotgun Shack - WILEY HURT
TTITLE9=Moving On - T and MASSON
TTITLE10=Time To Boogie - RAY BENSON
TTITLE11=Twenty One Jezebels - The BARRELHOUSE BROTHERS
TTITLE12=Trouble - TIMO GROSS
TTITLE13=The Town - LOS LOBOS
TTITLE14=Luckiest Man - The WOOD BROTHERS
TTITLE15=Steel My Kisses - TRIPLEX
TTITLE16=The Rose - FRANKIE MILLER
TTITLE17=If You're Comin' (I'm Out Of Here) - APRIL WINE
TTITLE18=Endless Commercial  (acoustic) - JOHN KAY
TTITLE19=Song For You - JOE and ELLEN
EXTD=
EXTT0=
EXTT1=
EXTT2=
EXTT3=
EXTT4=
EXTT5=
EXTT6=
EXTT7=
EXTT8=
EXTT9=
EXTT10=
EXTT11=
EXTT12=
EXTT13=
EXTT14=
EXTT15=
EXTT16=
EXTT17=
EXTT18=
EXTT19=
PLAYORDER=
